<svg width="74" height="34" viewBox="0 0 74 34" fill="none" xmlns="http://www.w3.org/2000/svg">
<path d="M4.0001 7.33276C4.79024 7.33276 5.43224 7.24634 5.92608 7.07349C6.44461 6.90065 6.86437 6.66607 7.18537 6.36977C7.50636 6.07347 7.76563 5.72778 7.96316 5.33271C8.1607 4.93764 8.33354 4.51787 8.4817 4.07342H11.2225V30H7.14833V10.2217H4.0001V7.33276ZM19.9073 24.0369C19.9073 24.9752 20.0925 25.6419 20.4629 26.0369C20.858 26.4073 21.3765 26.5925 22.0185 26.5925C22.6605 26.5925 23.1667 26.4073 23.5371 26.0369C23.9321 25.6419 24.1297 24.9752 24.1297 24.0369V10.0365C24.1297 9.09823 23.9321 8.4439 23.5371 8.07352C23.1667 7.67845 22.6605 7.48091 22.0185 7.48091C21.3765 7.48091 20.858 7.67845 20.4629 8.07352C20.0925 8.4439 19.9073 9.09823 19.9073 10.0365V24.0369ZM15.8332 10.2958C15.8332 8.19698 16.364 6.592 17.4258 5.48086C18.4875 4.34503 20.0184 3.77711 22.0185 3.77711C24.0185 3.77711 25.5495 4.34503 26.6112 5.48086C27.673 6.592 28.2038 8.19698 28.2038 10.2958V23.7776C28.2038 25.8764 27.673 27.4938 26.6112 28.6296C25.5495 29.7407 24.0185 30.2963 22.0185 30.2963C20.0184 30.2963 18.4875 29.7407 17.4258 28.6296C16.364 27.4938 15.8332 25.8764 15.8332 23.7776V10.2958ZM34.5923 24.0369C34.5923 24.9752 34.7775 25.6419 35.1479 26.0369C35.543 26.4073 36.0615 26.5925 36.7035 26.5925C37.3455 26.5925 37.8517 26.4073 38.222 26.0369C38.6171 25.6419 38.8146 24.9752 38.8146 24.0369V10.0365C38.8146 9.09823 38.6171 8.4439 38.222 8.07352C37.8517 7.67845 37.3455 7.48091 36.7035 7.48091C36.0615 7.48091 35.543 7.67845 35.1479 8.07352C34.7775 8.4439 34.5923 9.09823 34.5923 10.0365V24.0369ZM30.5181 10.2958C30.5181 8.19698 31.049 6.592 32.1108 5.48086C33.1725 4.34503 34.7034 3.77711 36.7035 3.77711C38.7035 3.77711 40.2344 4.34503 41.2962 5.48086C42.3579 6.592 42.8888 8.19698 42.8888 10.2958V23.7776C42.8888 25.8764 42.3579 27.4938 41.2962 28.6296C40.2344 29.7407 38.7035 30.2963 36.7035 30.2963C34.7034 30.2963 33.1725 29.7407 32.1108 28.6296C31.049 27.4938 30.5181 25.8764 30.5181 23.7776V10.2958ZM49.2773 24.0369C49.2773 24.9752 49.4625 25.6419 49.8329 26.0369C50.2279 26.4073 50.7465 26.5925 51.3885 26.5925C52.0304 26.5925 52.5366 26.4073 52.907 26.0369C53.3021 25.6419 53.4996 24.9752 53.4996 24.0369V10.0365C53.4996 9.09823 53.3021 8.4439 52.907 8.07352C52.5366 7.67845 52.0304 7.48091 51.3885 7.48091C50.7465 7.48091 50.2279 7.67845 49.8329 8.07352C49.4625 8.4439 49.2773 9.09823 49.2773 10.0365V24.0369ZM45.2031 10.2958C45.2031 8.19698 45.734 6.592 46.7957 5.48086C47.8575 4.34503 49.3884 3.77711 51.3885 3.77711C53.3885 3.77711 54.9194 4.34503 55.9812 5.48086C57.0429 6.592 57.5738 8.19698 57.5738 10.2958V23.7776C57.5738 25.8764 57.0429 27.4938 55.9812 28.6296C54.9194 29.7407 53.3885 30.2963 51.3885 30.2963C49.3884 30.2963 47.8575 29.7407 46.7957 28.6296C45.734 27.4938 45.2031 25.8764 45.2031 23.7776V10.2958ZM67.5179 15.5922H72.481V18.4812H67.5179V23.5554H64.629V18.4812H59.6659V15.5922H64.629V10.5921H67.5179V15.5922Z" fill="black"/>
</svg>
