<svg width="94" height="18" viewBox="0 0 94 18" fill="none" xmlns="http://www.w3.org/2000/svg">
<path d="M15.9067 8.65159C15.6456 8.48499 15.3572 8.43526 15.1209 8.43526L11.3761 8.41288H11.3712C11.1349 8.41288 10.839 8.46012 10.573 8.62921C10.2746 8.81819 10.0334 9.15388 10.0334 9.59649V9.68352C10.0334 10.064 10.2348 10.3226 10.3914 10.4618C10.5332 10.5886 10.6923 10.6657 10.7868 10.708C10.8912 10.7552 11.0031 10.795 11.0877 10.8249C11.1822 10.8597 11.2593 10.8845 11.3363 10.9144C11.4259 10.9492 11.4855 10.9765 11.5228 10.9989V14.1892C10.9086 14.5075 10.011 14.7462 8.98155 14.7462C6.42036 14.7462 3.70253 11.9786 3.70253 7.84594C3.70253 4.76506 5.6346 2.76336 7.64625 2.76336C8.48174 2.76336 9.06609 2.97223 9.5087 3.25819C9.96375 3.5516 10.3168 3.9594 10.6451 4.42688C10.8092 4.66311 10.9584 4.89685 11.1175 5.14302C11.2692 5.37924 11.4333 5.63536 11.6124 5.86164C11.953 6.29928 12.4901 6.83638 13.3231 6.83638C13.803 6.83638 14.273 6.67475 14.6261 6.32166C14.9792 5.96856 15.1408 5.49611 15.1408 5.01869C15.1408 3.83756 14.3252 2.60173 13.164 1.70904C11.9605 0.784033 10.2597 0.110168 8.21568 0.110168C3.58566 0.110168 0 3.75053 0 9.02706C0 13.7715 3.90891 17.8345 8.45688 17.8345C10.8987 17.8345 12.9278 17.1085 14.2506 16.0119C14.4993 15.813 14.743 15.5792 14.9121 15.2709C15.0936 14.9377 15.1383 14.6045 15.1383 14.2862V10.9641C15.1682 10.9467 15.2104 10.9243 15.2676 10.8995C15.3323 10.8696 15.3944 10.8448 15.479 10.8124C15.5536 10.7826 15.6555 10.7403 15.7525 10.6906C15.842 10.6433 15.9937 10.5613 16.1255 10.4245C16.2747 10.2704 16.4314 10.0217 16.4314 9.6885V9.60147C16.4314 9.17377 16.2001 8.84306 15.9092 8.65656L15.9067 8.65159Z" fill="#1E1E1E"/>
<path d="M91.2135 8.69456C90.1642 7.91626 88.814 7.58306 87.6552 7.32943C86.4095 7.05839 85.3974 6.87438 84.6539 6.4815C84.3083 6.29998 84.0721 6.0936 83.9179 5.85737C83.7662 5.62363 83.6543 5.29789 83.6543 4.79809C83.6543 4.17893 83.8682 3.68409 84.2412 3.33846C84.6166 2.98785 85.2358 2.7193 86.1732 2.7193C87.046 2.7193 87.5732 2.91077 87.9188 3.13705C88.2694 3.36581 88.5081 3.68161 88.7245 4.06454C88.8339 4.26098 88.9284 4.45991 89.0353 4.68122C89.1348 4.8876 89.2541 5.1288 89.3934 5.34762C89.6893 5.80764 90.1791 6.31242 91.0146 6.31242C91.4846 6.31242 91.957 6.16819 92.3101 5.81013C92.6607 5.45454 92.7875 4.99204 92.7875 4.56186C92.7875 3.44538 92.0913 2.31647 90.9922 1.50585C89.8683 0.675326 88.262 0.115845 86.2379 0.115845C84.3481 0.115845 82.7716 0.615648 81.6476 1.54066C80.5113 2.47561 79.907 3.7935 79.907 5.26556C79.907 7.16034 80.6033 8.41607 81.7372 9.22172C82.789 9.9677 84.1392 10.2661 85.2855 10.4973C86.5238 10.7485 87.5234 10.925 88.252 11.3279C88.5902 11.5144 88.8264 11.7282 88.9856 11.9918C89.1447 12.2529 89.2616 12.6209 89.2616 13.1729C89.2616 13.7796 89.0204 14.267 88.6026 14.6176C88.1724 14.9782 87.5085 15.2318 86.6332 15.2318C85.6635 15.2318 85.0344 15.0229 84.6017 14.7618C84.1641 14.4983 83.8582 14.1377 83.5971 13.7249C83.4629 13.5136 83.346 13.2997 83.2241 13.071C83.1073 12.8546 82.9755 12.606 82.8313 12.3871C82.5478 11.952 82.0704 11.3925 81.2398 11.3577H81.2224H81.205C80.7202 11.3577 80.2601 11.5293 79.9294 11.8998C79.6111 12.2554 79.4943 12.7005 79.4943 13.1107C79.4943 14.1327 80.1656 15.3238 81.3045 16.2264C82.4831 17.1589 84.2237 17.8427 86.5462 17.8427C88.2222 17.8427 89.8161 17.4001 91.0121 16.5373C92.2281 15.662 93.0312 14.3491 93.0312 12.7154C93.0312 10.8131 92.3375 9.53752 91.2135 8.70202V8.69456Z" fill="#1E1E1E"/>
<path d="M49.4194 15.2476C49.2453 15.1257 49.1433 15.0387 49.0638 14.8572L43.4143 1.56639C43.2725 1.22573 43.0612 0.87761 42.7105 0.633925C42.35 0.380293 41.9497 0.310669 41.5792 0.310669H40.3085C40.0623 0.310669 39.749 0.372834 39.4904 0.604086C39.2194 0.845285 39.1249 1.16357 39.1249 1.42963V1.49428C39.1249 1.74046 39.2094 1.9369 39.2865 2.07117C39.3636 2.20047 39.4531 2.29994 39.5153 2.36459C39.5799 2.43173 39.6496 2.49389 39.6993 2.53616C39.7416 2.57346 39.7714 2.60081 39.8012 2.62817L35.0021 14.887V14.8945L34.9947 14.902C34.9325 15.0686 34.8505 15.1432 34.6913 15.2526C34.6366 15.2899 34.4402 15.4142 34.2984 15.5485C34.1119 15.7275 33.9105 16.0184 33.9105 16.4312V16.476C33.9105 16.8763 34.1144 17.2269 34.4526 17.4258C34.7236 17.5875 35.0195 17.6148 35.2259 17.6148H37.3072C37.5161 17.6148 37.802 17.5875 38.0681 17.4408C38.3864 17.2642 38.645 16.926 38.645 16.476V16.4312C38.645 15.909 38.3018 15.6032 38.1551 15.4863C38.0706 15.4192 37.9836 15.3645 37.9288 15.3272C37.9239 15.3247 37.9214 15.3222 37.9164 15.3197L38.5953 13.497H44.4959L45.2369 15.3197C45.2369 15.3197 45.227 15.3272 45.2195 15.3296C45.1648 15.3669 45.0778 15.4241 44.9957 15.4913C44.8465 15.6106 44.5158 15.9165 44.5158 16.4312V16.476C44.5158 16.8713 44.7147 17.217 45.043 17.4184C45.3115 17.585 45.6049 17.6148 45.8088 17.6148H48.8972C49.1011 17.6148 49.3945 17.585 49.663 17.4184C49.9913 17.217 50.1902 16.8713 50.1902 16.476V16.4312C50.1902 16.0309 50.0012 15.7424 49.8197 15.5584C49.678 15.4167 49.4865 15.2923 49.4243 15.2476H49.4194ZM39.6247 10.7991L41.4523 5.95522L43.4118 10.7991H39.6247Z" fill="#1E1E1E"/>
<path d="M70.9213 15.2693C70.7945 15.1674 70.7447 15.1102 70.7124 14.966L68.4372 2.77672C68.4322 2.74688 68.4297 2.72699 68.4297 2.71455C68.4372 2.70709 68.4496 2.69218 68.472 2.67228C68.5043 2.64244 68.5366 2.61509 68.5963 2.56785C68.6461 2.52806 68.7231 2.46341 68.7952 2.3913C68.942 2.24708 69.1956 1.9462 69.1956 1.48867V1.42402C69.1956 1.01124 68.9743 0.697934 68.7132 0.521387C68.4745 0.359759 68.2109 0.305054 67.9896 0.305054H66.4355C66.0849 0.305054 65.7293 0.389598 65.421 0.61339C65.1151 0.834696 64.9336 1.13309 64.8267 1.42153V1.42899L64.8217 1.43645L61.2559 11.4773L57.7996 1.46629V1.46132C57.6752 1.11319 57.4514 0.807344 57.1332 0.598471C56.8199 0.392084 56.4618 0.30754 56.1161 0.30754H54.6714C54.4327 0.30754 54.1244 0.359759 53.8558 0.571118C53.5599 0.802371 53.4232 1.14055 53.4232 1.46878V1.51353C53.4232 1.94371 53.6395 2.2421 53.8086 2.41119C53.8882 2.49076 53.9677 2.55541 54.0249 2.60017C54.0896 2.6499 54.1095 2.66482 54.1468 2.69466L52.0381 14.9809C52.0158 15.1077 51.9735 15.1599 51.8417 15.2693C51.8019 15.3016 51.6154 15.4459 51.4961 15.5752C51.3369 15.7467 51.1479 16.0302 51.1479 16.4306V16.4753C51.1479 16.9204 51.3991 17.2561 51.7099 17.4327C51.9735 17.5818 52.2545 17.6142 52.4634 17.6142H54.4576C54.664 17.6142 54.9475 17.5843 55.211 17.4327C55.5219 17.2561 55.773 16.9204 55.773 16.4753V16.4306C55.773 15.9308 55.4597 15.6274 55.308 15.4981C55.2259 15.4285 55.1414 15.3713 55.0842 15.334C55.0171 15.2892 54.9798 15.2643 54.94 15.2345C54.94 15.2345 54.9375 15.2345 54.935 15.232L56.2554 7.38685L59.5775 16.5996L59.5874 16.6245C59.6869 16.8583 59.8435 17.1193 60.1096 17.3158C60.3881 17.5247 60.6989 17.5918 60.9849 17.5918C61.3007 17.5918 61.6314 17.5048 61.9124 17.2611C62.1536 17.0497 62.2829 16.7812 62.36 16.6021L62.3699 16.5798L62.3774 16.5574L65.6597 7.57334L67.0198 15.2842C66.9925 15.3041 66.9651 15.3265 66.9154 15.3613C66.8657 15.3986 66.7861 15.4558 66.709 15.5254C66.5548 15.6647 66.2838 15.9631 66.2838 16.4306V16.4753C66.2838 16.9204 66.5349 17.2561 66.8458 17.4327C67.1093 17.5818 67.3903 17.6142 67.5992 17.6142H70.2947C70.5035 17.6142 70.7895 17.5868 71.0556 17.4401C71.3738 17.2636 71.6324 16.9254 71.6324 16.4753V16.4306C71.6324 16.0252 71.441 15.7418 71.2744 15.5677C71.1525 15.4409 70.9636 15.2992 70.9238 15.2668L70.9213 15.2693Z" fill="#1E1E1E"/>
<path d="M32.5777 15.5077C32.4136 15.371 32.1997 15.2591 32.1052 15.2068C31.8615 15.0726 31.6601 14.9457 31.4811 14.6946L31.4761 14.6871L28.6464 10.7782C30.6729 9.82836 31.8392 8.08029 31.8392 5.99901V5.99404C31.8267 4.04704 30.9614 2.5725 29.5391 1.62014C28.1615 0.697613 26.3189 0.302246 24.3471 0.302246H19.8563C19.6499 0.302246 19.3664 0.332085 19.1029 0.483767C18.792 0.660314 18.5409 0.996003 18.5409 1.4411V1.48586C18.5409 1.91355 18.7622 2.20448 18.9263 2.36611C19.0034 2.4432 19.0805 2.50287 19.1352 2.54515C19.2048 2.59985 19.2247 2.61228 19.2695 2.6471C19.3018 2.67196 19.3217 2.68937 19.3316 2.69931C19.3316 2.7018 19.3316 2.70677 19.3316 2.71175V15.1994C19.3316 15.1994 19.3316 15.2093 19.3316 15.2118C19.3217 15.2218 19.3043 15.2392 19.2695 15.264C19.2247 15.3013 19.2048 15.3138 19.1352 15.366C19.083 15.4058 19.0034 15.4679 18.9263 15.545C18.7622 15.7066 18.5409 15.9976 18.5409 16.4253V16.47C18.5409 16.9151 18.792 17.2508 19.1029 17.4274C19.3664 17.5766 19.6474 17.6089 19.8563 17.6089H22.6164C22.8228 17.6089 23.1063 17.579 23.3698 17.4274C23.6807 17.2508 23.9318 16.9151 23.9318 16.47V16.4253C23.9318 15.9702 23.6782 15.6718 23.5116 15.5202C23.4295 15.4456 23.3475 15.3859 23.2903 15.3461C23.2157 15.2939 23.1933 15.279 23.1436 15.2441C23.1088 15.2193 23.0889 15.2019 23.0764 15.1894V11.5913L24.8394 11.5615C24.8742 11.5615 24.909 11.5615 24.9463 11.5615L27.8009 15.5003C27.8009 15.5003 27.7885 15.5102 27.7835 15.5152C27.6393 15.642 27.3484 15.9404 27.3484 16.4253V16.47C27.3484 16.9151 27.5995 17.2508 27.9103 17.4274C28.1739 17.5766 28.4549 17.6089 28.6638 17.6089H31.7099C31.9162 17.6089 32.1997 17.579 32.4633 17.4274C32.7741 17.2508 33.0253 16.9151 33.0253 16.47V16.4253C33.0253 15.9777 32.7865 15.6768 32.5777 15.5027V15.5077ZM28.0521 6.28746C28.0521 7.13787 27.7263 7.76449 27.1868 8.19715C26.6273 8.64723 25.7644 8.93816 24.6355 8.93816H23.1237C23.1112 8.93816 23.0988 8.93816 23.0889 8.93816C23.0839 8.90335 23.0789 8.85361 23.0789 8.78648V2.95792H24.2401C25.3243 2.95792 26.2866 3.24885 26.958 3.78595C27.6045 4.30068 28.0521 5.0939 28.0521 6.28746Z" fill="#1E1E1E"/>
<path d="M75.3547 0C74.7256 0 74.1512 0.236226 73.7384 0.681324C73.3331 1.11896 73.1416 1.70082 73.1416 2.30009C73.1416 3.13558 73.5569 3.92135 74.2656 4.27444C74.1263 4.54548 73.9 4.8389 73.4823 5.23426L73.4723 5.24172L73.4649 5.24918C73.2461 5.468 73.1018 5.76888 73.1093 6.10954C73.1167 6.4328 73.261 6.70135 73.435 6.88536C73.7657 7.23348 74.375 7.4324 74.9344 7.11163L74.9717 7.09174L75.0066 7.06688C76.6775 5.88823 77.6349 4.26201 77.6349 2.49653C77.6349 1.80029 77.4161 1.17118 76.9908 0.70619C76.5632 0.241199 75.9738 0 75.3572 0L75.3547 0Z" fill="#1E1E1E"/>
</svg>
