<svg width="84" height="35" viewBox="0 0 84 35" fill="none" xmlns="http://www.w3.org/2000/svg">
<mask id="mask0_8919_52658" style="mask-type:luminance" maskUnits="userSpaceOnUse" x="0" y="0" width="84" height="35">
<path d="M83.574 0H0.507812V34.7167H83.574V0Z" fill="white"/>
</mask>
<g mask="url(#mask0_8919_52658)">
<path d="M0.507812 32.31C0.507812 32.3006 0.540754 32.1681 0.606337 31.913C0.671921 31.6483 0.72822 31.3693 0.775237 31.0762C0.822253 30.7734 0.845612 30.4899 0.845612 30.2252V24.2962C0.845612 24.0314 0.822253 23.7525 0.775237 23.4593C0.72822 23.1569 0.671921 22.8779 0.606337 22.6225C0.540754 22.3575 0.507812 22.2204 0.507812 22.2111V22.1543H4.85548C5.84971 22.1543 6.64719 22.3955 7.24762 22.8776C7.84805 23.3597 8.14812 24.0076 8.14812 24.8208C8.14812 25.6341 7.89477 26.211 7.38837 26.6647C6.89126 27.1091 6.21596 27.3787 5.36218 27.4732C6.21566 27.6906 6.84903 28.1872 7.2617 28.9624C7.41173 29.2555 7.58542 29.6054 7.78217 30.012C7.97922 30.4187 8.12925 30.7305 8.23257 30.9482C8.34517 31.1562 8.48592 31.3877 8.65482 31.6431C8.82372 31.8889 9.00669 32.1113 9.20344 32.3097V32.3664H6.96612C6.68462 32.1017 6.22494 31.2175 5.58738 29.7141C5.08068 28.5225 4.43353 27.837 3.64563 27.6573H2.70291V30.2249C2.70291 30.6502 2.81551 31.3452 3.04071 32.3097V32.3664H0.507812V32.3097V32.31ZM2.70291 27.1043H4.18018C4.80876 27.1043 5.2918 26.9198 5.6293 26.5512C5.97638 26.1823 6.14978 25.6341 6.14978 24.906C6.14978 24.1778 5.98567 23.6483 5.65745 23.2607C5.32924 22.8634 4.86027 22.6651 4.25025 22.6651H2.70261V27.1046L2.70291 27.1043ZM3.04041 27.6293H3.11078C3.05448 27.6293 3.01226 27.6341 2.98411 27.6435C2.99339 27.6435 3.01226 27.6386 3.04041 27.6293Z" fill="#1E1E1E"/>
<path d="M9.92188 22.2111V22.1543H16.957V24.1827H16.9007C16.8632 24.1636 16.7366 24.0598 16.5206 23.8705C16.3047 23.6815 16.0939 23.5113 15.8876 23.36C15.6905 23.1991 15.4372 23.0527 15.1278 22.9202C14.8277 22.7783 14.5462 22.7073 14.2836 22.7073H12.1167V26.8776H13.2424C13.4957 26.8776 13.7676 26.8492 14.0584 26.7924C14.3585 26.7357 14.6025 26.6789 14.79 26.6222C14.9871 26.5561 15.1934 26.4851 15.409 26.4094C15.6246 26.3336 15.742 26.291 15.7609 26.2817H15.8172V27.9695H15.7609C15.742 27.9601 15.6249 27.9176 15.409 27.8418C15.1934 27.766 14.9868 27.6999 14.79 27.6432C14.6025 27.577 14.3585 27.5155 14.0584 27.4587C13.7676 27.402 13.4957 27.3736 13.2424 27.3736H12.1167V31.8131H14.3258C14.5885 31.8131 14.87 31.747 15.17 31.6144C15.4797 31.4726 15.7327 31.3261 15.9298 31.1749C16.1361 31.014 16.3472 30.8392 16.5629 30.6499C16.7788 30.4609 16.9051 30.3568 16.9429 30.3378H16.9992V32.3661H9.92188V32.3094C9.92188 32.3 9.95482 32.1675 10.0204 31.9124C10.086 31.6476 10.1423 31.3687 10.1893 31.0756C10.2363 30.7728 10.2597 30.4893 10.2597 30.2246V24.2956C10.2597 24.0308 10.2363 23.7519 10.1893 23.4587C10.1423 23.1563 10.086 22.8773 10.0204 22.6219C9.95482 22.3572 9.92188 22.2201 9.92188 22.2104V22.2111Z" fill="#1E1E1E"/>
<path d="M18.094 24.9337C18.094 24.13 18.4223 23.4445 19.079 22.8769C19.7357 22.3 20.6266 22.0117 21.7523 22.0117C22.8125 22.0117 23.9567 22.2955 25.1854 22.8627V24.9478H25.1151C24.721 24.5222 24.3646 24.1629 24.0457 23.8698C23.7267 23.5767 23.3233 23.2929 22.8355 23.0188C22.357 22.7447 21.9117 22.6076 21.4987 22.6076C20.9827 22.6076 20.5608 22.7495 20.2322 23.033C19.9133 23.3168 19.754 23.6618 19.754 24.0685C19.754 24.5412 19.9933 24.9385 20.4715 25.26C20.9594 25.5815 21.691 25.922 22.6666 26.2813C24.5991 27.0471 25.5652 28.13 25.5652 29.5295C25.5652 30.4941 25.2088 31.2364 24.4958 31.7565C23.7923 32.2767 22.9245 32.5366 21.8928 32.5366C20.8611 32.5366 19.604 32.2151 18.2063 31.5721V29.416H18.2908C18.6379 29.7943 18.9098 30.0874 19.1068 30.2954C19.3132 30.4941 19.5947 30.7446 19.951 31.0474C20.3074 31.3405 20.6545 31.5579 20.9923 31.6998C21.3394 31.8417 21.6912 31.9126 22.0476 31.9126C22.5729 31.9126 23.0092 31.7659 23.3563 31.4728C23.7034 31.1796 23.8768 30.7827 23.8768 30.2812C23.8768 29.7234 23.6471 29.2744 23.1874 28.9339C22.7373 28.5934 22.0572 28.2625 21.1471 27.941C19.1116 27.2506 18.0938 26.2484 18.0938 24.934L18.094 24.9337Z" fill="#1E1E1E"/>
<path d="M26.7969 22.2111V22.1543H29.3295V22.2111C29.1043 23.1756 28.9917 23.8705 28.9917 24.2962V30.2252C28.9917 30.6505 29.1043 31.3455 29.3295 32.31V32.3667H26.7969V32.31C26.7969 32.3006 26.8298 32.1681 26.8954 31.913C26.961 31.6483 27.0173 31.3693 27.0643 31.0762C27.1113 30.7734 27.1347 30.4899 27.1347 30.2252V24.2962C27.1347 24.0314 27.1113 23.7525 27.0643 23.4593C27.0173 23.1569 26.961 22.8779 26.8954 22.6225C26.8298 22.3578 26.7969 22.2207 26.7969 22.2111Z" fill="#1E1E1E"/>
<path d="M30.8954 31.8988C30.961 31.6434 31.0173 31.3693 31.064 31.0762C31.111 30.7734 31.1344 30.4899 31.1344 30.2252V24.2962C31.1344 24.0314 31.111 23.7525 31.064 23.4593C31.0173 23.1569 30.961 22.8779 30.8954 22.6225C30.8295 22.3578 30.7969 22.2207 30.7969 22.2111V22.1543H34.5537C35.895 22.1543 37.03 22.627 37.9586 23.5729C38.8966 24.5184 39.3655 25.7334 39.3655 27.2181C39.3655 28.7028 38.8966 29.9933 37.9586 30.9485C37.03 31.894 35.895 32.3667 34.5537 32.3667H30.7969V32.31C30.7969 32.3006 30.8295 32.1636 30.8954 31.8988ZM32.9917 31.8137H34.047C35.079 31.8137 35.8761 31.3787 36.4391 30.5086C37.0018 29.6293 37.2833 28.5325 37.2833 27.2181C37.2738 25.9321 36.9878 24.8589 36.4251 23.9982C35.8716 23.1378 35.079 22.7073 34.047 22.7073H32.9917V31.8134V31.8137Z" fill="#1E1E1E"/>
<path d="M40.4141 22.2111V22.1543H47.4494V24.1827H47.3931C47.3554 24.1636 47.229 24.0598 47.0131 23.8705C46.7975 23.6815 46.5864 23.5113 46.38 23.36C46.183 23.1991 45.9296 23.0527 45.6203 22.9202C45.3199 22.7783 45.0387 22.7073 44.7761 22.7073H42.6092V26.8776H43.7349C43.9879 26.8776 44.2601 26.8492 44.5509 26.7924C44.851 26.7357 45.095 26.6789 45.2825 26.6222C45.4795 26.5561 45.6859 26.4851 45.9015 26.4094C46.1174 26.3336 46.2345 26.291 46.2534 26.2817H46.3097V27.9695H46.2534C46.2345 27.9601 46.1174 27.9176 45.9015 27.8418C45.6859 27.766 45.4795 27.6999 45.2825 27.6432C45.095 27.577 44.851 27.5155 44.5509 27.4587C44.2601 27.402 43.9879 27.3736 43.7349 27.3736H42.6092V31.8131H44.818C45.081 31.8131 45.3622 31.747 45.6625 31.6144C45.9719 31.4726 46.2252 31.3261 46.4223 31.1749C46.6286 31.014 46.8397 30.8392 47.0553 30.6499C47.271 30.4609 47.3976 30.3568 47.4354 30.3378H47.4917V32.3661H40.4141V32.3094C40.4141 32.3 40.447 32.1675 40.5126 31.9124C40.5782 31.6476 40.6345 31.3687 40.6815 31.0756C40.7285 30.7728 40.7519 30.4893 40.7519 30.2246V24.2956C40.7519 24.0308 40.7285 23.7519 40.6815 23.4587C40.6345 23.1563 40.5782 22.8773 40.5126 22.6219C40.447 22.3572 40.4141 22.2201 40.4141 22.2104V22.2111Z" fill="#1E1E1E"/>
<path d="M48.7031 32.3667V32.2958C48.7031 32.2864 48.7454 32.1494 48.8298 31.8846C48.9235 31.6199 48.9987 31.3787 49.055 31.1613C49.1206 30.9437 49.1814 30.6599 49.2377 30.31C49.3036 29.9601 49.3362 29.6389 49.3362 29.3455V24.5938C49.3362 24.3574 49.3081 24.0972 49.2518 23.8138C49.205 23.53 49.1532 23.303 49.0972 23.133C49.0409 22.9534 48.975 22.7547 48.9002 22.5374L48.7876 22.2111V22.1543H51.0668L56.2871 29.8846V25.1756C56.2871 24.8824 56.2542 24.5609 56.1886 24.211C56.1323 23.8612 56.0712 23.5774 56.0056 23.36C55.9401 23.1427 55.8649 22.9063 55.7804 22.6509C55.696 22.3861 55.6493 22.2443 55.6397 22.2252V22.1543H57.5392V22.2252C57.5299 22.263 57.4829 22.4049 57.3988 22.6509C57.3236 22.8873 57.2532 23.1236 57.1876 23.36C57.122 23.587 57.0562 23.8753 56.9906 24.2252C56.9343 24.5657 56.9061 24.8824 56.9061 25.1756V32.3667H55.7101L49.9696 23.8989V29.3455C49.9696 29.6386 49.9977 29.9601 50.0537 30.31C50.1196 30.6599 50.1804 30.9437 50.2367 31.1613C50.3026 31.3787 50.3774 31.6199 50.4619 31.8846C50.5556 32.1494 50.6026 32.2864 50.6026 32.2958V32.3667H48.7031Z" fill="#1E1E1E"/>
<path d="M59.8165 23.4728C60.7263 22.499 61.8802 22.0117 63.2778 22.0117C64.2157 22.0117 65.3181 22.2294 66.5842 22.6641V24.9478H66.4998C65.4774 23.3877 64.4598 22.6076 63.4467 22.6076C62.6211 22.6076 61.9269 23.0568 61.3642 23.9552C60.8108 24.844 60.5341 25.9459 60.5341 27.26C60.5341 28.5741 60.8201 29.6853 61.3923 30.5931C61.9739 31.4915 62.6633 31.9407 63.4608 31.9407C63.9764 31.9407 64.4972 31.7185 65.0225 31.2738C65.557 30.8201 66.0497 30.2526 66.4998 29.5718H66.5842V31.8839C65.271 32.3189 64.1453 32.5363 63.2074 32.5363C61.8661 32.5363 60.7356 32.0445 59.8165 31.0613C58.8972 30.0778 58.4375 28.8153 58.4375 27.2742C58.4375 25.733 58.8972 24.4467 59.8165 23.4728Z" fill="#1E1E1E"/>
<path d="M67.9375 22.2111V22.1543H74.9729V24.1827H74.9166C74.8789 24.1636 74.7525 24.0598 74.5366 23.8705C74.3209 23.6815 74.1098 23.5113 73.9035 23.36C73.7064 23.1991 73.4531 23.0527 73.1437 22.9202C72.8434 22.7783 72.5622 22.7073 72.2992 22.7073H70.1326V26.8776H71.2583C71.5113 26.8776 71.7836 26.8492 72.0743 26.7924C72.3744 26.7357 72.6182 26.6789 72.8059 26.6222C73.003 26.5561 73.2093 26.4851 73.4249 26.4094C73.6409 26.3336 73.7579 26.291 73.7768 26.2817H73.8331V27.9695H73.7768C73.7579 27.9601 73.6409 27.9176 73.4249 27.8418C73.2093 27.766 73.003 27.6999 72.8059 27.6432C72.6182 27.577 72.3744 27.5155 72.0743 27.4587C71.7836 27.402 71.5113 27.3736 71.2583 27.3736H70.1326V31.8131H72.3415C72.6041 31.8131 72.8856 31.747 73.186 31.6144C73.4953 31.4726 73.7487 31.3261 73.9457 31.1749C74.152 31.014 74.3632 30.8392 74.5788 30.6499C74.7944 30.4609 74.9211 30.3568 74.9588 30.3378H75.0151V32.3661H67.9375V32.3094C67.9375 32.3 67.9704 32.1675 68.036 31.9124C68.1016 31.6476 68.1579 31.3687 68.2049 31.0756C68.2519 30.7728 68.2753 30.4893 68.2753 30.2246V24.2956C68.2753 24.0308 68.2519 23.7519 68.2049 23.4587C68.1579 23.1563 68.1016 22.8773 68.036 22.6219C67.9704 22.3572 67.9375 22.2201 67.9375 22.2104V22.2111Z" fill="#1E1E1E"/>
<path d="M76.1094 24.9337C76.1094 24.13 76.4379 23.4445 77.0943 22.8769C77.7511 22.3 78.642 22.0117 79.7677 22.0117C80.8278 22.0117 81.972 22.2955 83.2011 22.8627V24.9478H83.1307C82.7366 24.5222 82.3802 24.1629 82.0613 23.8698C81.7424 23.5767 81.339 23.2929 80.8511 23.0188C80.3729 22.7447 79.9273 22.6076 79.5146 22.6076C78.9986 22.6076 78.5764 22.7495 78.2482 23.033C77.9292 23.3168 77.7696 23.6618 77.7696 24.0685C77.7696 24.5412 78.0089 24.9385 78.4874 25.26C78.975 25.5815 79.7069 25.922 80.6822 26.2813C82.6147 27.0471 83.5808 28.13 83.5808 29.5295C83.5808 30.4941 83.2244 31.2364 82.5114 31.7565C81.8079 32.2767 80.9404 32.5366 79.9084 32.5366C78.8765 32.5366 77.6196 32.2151 76.222 31.5721V29.416H76.3064C76.6535 29.7943 76.9254 30.0874 77.1225 30.2954C77.3288 30.4941 77.6103 30.7446 77.9667 31.0474C78.323 31.3405 78.6701 31.5579 79.0079 31.6998C79.355 31.8417 79.7069 31.9126 80.0632 31.9126C80.5885 31.9126 81.0248 31.7659 81.3719 31.4728C81.7187 31.1796 81.8924 30.7827 81.8924 30.2812C81.8924 29.7234 81.6627 29.2744 81.203 28.9339C80.7526 28.5934 80.0725 28.2625 79.1627 27.941C77.1273 27.2506 76.1094 26.2484 76.1094 24.934V24.9337Z" fill="#1E1E1E"/>
<path d="M13.186 15.1094L17.1048 3.90193C17.2273 3.55023 17.2896 3.19038 17.2896 2.85197C17.2896 1.32897 16.2019 0.00158158 14.5686 0.000977811H11.8219C10.1512 -0.00053161 8.91406 1.367 8.91406 2.92774C8.91406 3.24986 8.97456 3.6091 9.09644 3.94147L13.186 15.1094Z" fill="#1E1E1E"/>
<path d="M53.8311 14.7676V1.09651H53.2163C50.8589 1.09651 48.9459 4.23098 48.1625 6.77828H47.836V1.39478C47.836 0.625273 47.2167 0.000976562 46.4534 0.000976562C45.6901 0.000976562 45.0708 0.625273 45.0708 1.39478V5.30961H44.7434C43.1793 3.26767 40.4593 0.8378 37.9485 0.8378C36.3344 0.8378 35.4375 1.94813 35.4375 3.05906C35.4375 4.94433 38.0504 5.74463 40.7405 6.88122C45.0959 8.79275 45.9413 11.2202 45.9413 13.0535C45.9413 15.798 44.164 17.513 41.8081 18.2825V18.3063H51.0978C52.918 18.3063 53.8311 16.8214 53.8311 14.7661V14.7676Z" fill="#1E1E1E"/>
<path d="M60.8973 18.3078C59.0768 18.3078 58.1641 16.8229 58.1641 14.7676V1.09651H58.7789C61.1363 1.09651 63.0463 4.23098 63.8288 6.77828H64.1591V1.40081C64.1591 0.627386 64.7805 0.000976562 65.5477 0.000976562H67.2975C68.841 0.000976562 69.8873 1.42195 69.4067 2.77076L65.1339 14.7532C64.3439 16.9699 63.1987 18.3078 61.327 18.3078H60.8973Z" fill="#1E1E1E"/>
<path d="M60.8973 18.3078C59.0768 18.3078 58.1641 16.8229 58.1641 14.7676V1.09651H58.7789C61.1363 1.09651 63.0463 4.23098 63.8288 6.77828H64.1591V1.40081C64.1591 0.627386 64.7805 0.000976562 65.5477 0.000976562H67.2975C68.5798 0.000976562 69.5247 0.981496 69.5247 2.087C69.5247 2.3119 69.4881 2.54194 69.4067 2.77076L65.1339 14.7532C64.3439 16.9699 63.1987 18.3078 61.327 18.3078H60.8973Z" fill="#1E1E1E"/>
<path d="M21.6308 0C23.0027 0 23.3959 1.33735 23.3959 3.26186V14.7682C23.3959 16.8234 22.4831 18.3084 20.6629 18.3084H16.332C15.0207 18.3084 14.4688 17.5884 14.4688 16.6589C14.4688 15.8839 14.9707 14.3612 15.3432 13.2956L18.195 5.13082C18.9943 2.86186 20.0104 0.000905652 21.6299 0.000905652L21.6305 0H21.6308Z" fill="#1E1E1E"/>
<path d="M30.6392 0.00292969C28.819 0.00292969 27.9062 1.4879 27.9062 3.54313V14.7684C27.9062 16.8236 28.9316 18.3086 30.4922 18.3086C31.1926 18.3086 31.7182 17.7552 31.7191 17.0724L31.723 12.5658H32.0524C33.8007 14.753 36.565 17.4727 39.1785 17.4727C40.5105 17.4727 41.7913 16.6724 41.7913 15.0452C41.7913 12.9021 39.5627 11.9717 36.8211 10.9133C33.9516 9.82865 31.3642 8.35667 31.3642 5.36047C31.3642 3.11596 32.825 0.923374 35.6654 0.0279861V0.00383534H30.6401L30.6392 0.00292969Z" fill="#1E1E1E"/>
<path d="M4.83901 4.79628L9.03365 16.2516C9.10103 16.4363 9.12858 16.5954 9.12858 16.7941C9.12858 17.5907 8.47185 18.3083 7.61178 18.3083H2.65469C1.4688 18.3083 0.507813 17.3396 0.507813 16.1444V2.15933C0.507214 1.26182 1.21156 0.706055 1.84763 0.706055C3.06077 0.706055 3.83789 2.06272 4.83811 4.79628H4.83901Z" fill="#1E1E1E"/>
<path d="M79.2739 13.5171L75.0793 2.06004C75.0179 1.89159 74.9844 1.72253 74.9844 1.55619C74.9844 0.735674 75.6234 0.00390625 76.5009 0.00390625H81.4589C82.6447 0.00390625 83.6057 0.972652 83.6057 2.16811V16.1547C83.6057 17.0525 82.9014 17.608 82.2653 17.608C81.0519 17.608 80.2748 16.2513 79.2745 13.5178L79.2739 13.5171Z" fill="#1E1E1E"/>
<path d="M68.2969 10.8123L70.9442 3.23828L73.7169 10.8123H68.2969Z" fill="#1E1E1E"/>
<path d="M72.805 18.3085H69.3516C67.7461 18.3085 66.6875 17.1209 66.6875 15.7929C66.6875 15.5327 66.7366 15.2474 66.8256 14.9932L67.7758 12.2744H74.2691L75.2547 14.9554C75.358 15.2368 75.4065 15.5218 75.4065 15.7998C75.4047 17.1278 74.2988 18.3091 72.805 18.3091V18.3082V18.3085Z" fill="#1E1E1E"/>
</g>
</svg>
