<svg width="71" height="33" viewBox="0 0 71 33" fill="none" xmlns="http://www.w3.org/2000/svg">
<path d="M10.7268 29.7555L14.0416 20.2303C14.1425 19.9446 14.1954 19.6436 14.1979 19.3401C14.2096 19.0264 14.1588 18.7135 14.0485 18.4202C13.9381 18.1268 13.7706 17.859 13.5558 17.6327C13.341 17.4065 13.0834 17.2264 12.7984 17.1033C12.5134 16.9801 12.2068 16.9165 11.897 16.9161H9.57586C9.25255 16.9152 8.93225 16.979 8.63337 17.1039C8.3345 17.2289 8.06295 17.4124 7.83433 17.6441C7.60572 17.8757 7.42456 18.1509 7.30126 18.4537C7.17796 18.7565 7.11497 19.0811 7.1159 19.4087C7.11771 19.7027 7.16973 19.9943 7.26964 20.2704L10.7268 29.7555ZM45.1047 29.4653V17.8428H44.5864C42.5929 17.8428 40.9737 20.5081 40.3122 22.673H40.0363V18.0965C40.0363 17.7822 39.9131 17.4807 39.6937 17.2584C39.4743 17.0361 39.1768 16.9112 38.8665 16.9112C38.5563 16.9112 38.2587 17.0361 38.0394 17.2584C37.82 17.4807 37.6967 17.7822 37.6967 18.0965V21.425H37.42C36.0969 19.6891 33.7959 17.6238 31.6725 17.6238C31.4093 17.5996 31.144 17.6298 30.8927 17.7128C30.6414 17.7957 30.4094 17.9295 30.2108 18.1061C30.0122 18.2827 29.8511 18.4984 29.7373 18.7401C29.6235 18.9818 29.5595 19.2444 29.549 19.5119C29.549 21.1143 31.7594 21.7953 34.034 22.7612C37.7178 24.3858 38.433 26.4502 38.433 28.0089C38.433 30.3421 36.9297 31.8003 34.9372 32.4546V32.4751H42.7941C44.3342 32.4742 45.1065 31.2119 45.1065 29.4653H45.1047ZM12.1869 0.00940066H1.82434C1.34272 0.00940066 0.880815 0.203262 0.540253 0.548338C0.199691 0.893414 0.00836516 1.36144 0.00836516 1.84945V13.7336C0.00836516 13.9753 0.0553368 14.2146 0.146598 14.4378C0.23786 14.661 0.371624 14.8639 0.540253 15.0347C0.708882 15.2056 0.909074 15.3412 1.1294 15.4336C1.34972 15.5261 1.58587 15.5737 1.82434 15.5737H7.67905C7.99058 15.5737 8.28936 15.4483 8.50964 15.2251C8.72993 15.0019 8.85368 14.6991 8.85368 14.3835V10.6918H9.13219C10.5871 12.6645 12.9486 14.8633 15.1591 14.8633C15.4409 14.8881 15.7247 14.853 15.9924 14.7604C16.2601 14.6677 16.5058 14.5196 16.7138 14.3253C16.9218 14.131 17.0876 13.895 17.2005 13.6321C17.3134 13.3693 17.371 13.0856 17.3695 12.7989C17.3695 10.9767 15.4842 10.1862 13.1656 9.28619C10.7382 8.36394 8.5497 7.11232 8.5497 4.56812C8.58212 3.51215 8.95583 2.49618 9.61341 1.6763C10.271 0.856413 11.1761 0.277983 12.1896 0.0298753L12.1869 0.00940066ZM59.6167 0.00940066H57.3922C56.9056 0.00795978 56.4382 0.201358 56.0916 0.547486C55.7451 0.893614 55.5475 1.36444 55.542 1.85746C55.5439 2.11505 55.6024 2.36898 55.7133 2.60078L58.4755 8.42537L61.2869 2.61413C61.4016 2.37877 61.4617 2.11995 61.4626 1.85746C61.457 1.36521 61.2601 0.895056 60.9145 0.549054C60.5689 0.203052 60.1026 0.0091341 59.6167 0.00940066ZM33.6685 15.5728C32.1293 15.5728 31.3571 14.3105 31.3571 12.563V0.940552H31.8763C33.8697 0.940552 35.4854 3.60582 36.1478 5.77079H36.4272V1.1996C36.4272 0.88394 36.551 0.581208 36.7713 0.358002C36.9915 0.134796 37.2903 0.00940066 37.6018 0.00940066H39.0822C39.5615 -0.00658246 40.0277 0.169152 40.3802 0.49863C40.7327 0.828108 40.943 1.28487 40.9658 1.77022C40.9684 1.97259 40.9347 2.17375 40.8666 2.36398L37.2513 12.5506C36.5827 14.4351 35.6145 15.5728 34.0314 15.5728H33.6685ZM51.0859 32.4742C49.5467 32.4742 48.7745 31.2119 48.7745 29.4644V17.8428H49.2954C51.2889 17.8428 52.9046 20.5081 53.567 22.673H53.8464V18.1019C53.8464 17.7862 53.9701 17.4835 54.1904 17.2603C54.4107 17.0371 54.7095 16.9117 55.021 16.9117H56.4996C56.7874 16.897 57.0743 16.9533 57.3358 17.0758C57.5973 17.1983 57.8256 17.3833 58.001 17.6149C58.1764 17.8464 58.2937 18.1177 58.3428 18.4053C58.392 18.693 58.3715 18.9884 58.2831 19.2662L54.6696 29.4528C54.001 31.3374 53.0328 32.4751 51.4497 32.4751L51.0859 32.4742ZM51.0859 32.4742C49.5467 32.4742 48.7745 31.2119 48.7745 29.4644V17.8428H49.2954C51.2889 17.8428 52.9046 20.5081 53.567 22.673H53.8464V18.1019C53.8464 17.7862 53.9701 17.4835 54.1904 17.2603C54.4107 17.0371 54.7095 16.9117 55.021 16.9117H56.4996C56.7382 16.9027 56.9762 16.9415 57.2 17.0258C57.4238 17.1101 57.6291 17.2382 57.804 17.4029C57.9789 17.5676 58.1201 17.7656 58.2195 17.9855C58.3189 18.2055 58.3745 18.4432 58.3832 18.6849C58.3836 18.8831 58.35 19.0798 58.284 19.2662L54.6696 29.4528C54.001 31.3374 53.0328 32.4751 51.4497 32.4751L51.0859 32.4742ZM48.105 0.00940066C48.8663 0.0551186 49.5989 0.319723 50.2171 0.772213C50.8353 1.2247 51.3135 1.84634 51.5955 2.56428L55.3197 9.61379V12.5612C55.3197 14.3087 54.5914 15.571 53.0082 15.571C51.4251 15.571 50.3242 14.4307 49.6557 12.5506L49.6609 12.563L45.8172 2.01235C45.7224 1.77298 45.6632 1.52068 45.6415 1.26369C45.6607 1.07813 45.7161 0.898261 45.8044 0.734514C45.8927 0.570767 46.0121 0.426389 46.1559 0.309737C46.2996 0.193086 46.4647 0.106477 46.6417 0.0549236C46.8187 0.00337074 47.004 -0.0121021 47.1869 0.00940066H48.105ZM61.5469 15.5728C60.0077 15.5728 59.2354 14.3105 59.2354 12.563V9.59153L62.7585 2.56428C63.5026 1.07764 64.6544 0.00940066 66.0987 0.00940066H68.2723C68.539 0.00233427 68.8044 0.050255 69.0523 0.150255C69.3002 0.250255 69.5255 0.400249 69.7144 0.591135C69.9034 0.782022 70.0521 1.00982 70.1516 1.26071C70.251 1.51159 70.2991 1.78034 70.293 2.05063V13.7327C70.293 14.2208 70.1016 14.6888 69.7611 15.0339C69.4205 15.3789 68.9586 15.5728 68.477 15.5728H61.5469ZM17.8773 16.9081C19.0379 16.9081 19.3709 18.0449 19.3709 19.6811V29.4653C19.3709 31.2127 18.5986 32.4751 17.0594 32.4751H13.3914C12.2827 32.4751 11.8153 31.8635 11.8153 31.073C11.9426 30.0922 12.1912 29.1316 12.555 28.2137L14.9676 21.2701C15.6467 19.3419 16.5033 16.9099 17.873 16.9099L17.8773 16.9081ZM25.498 16.9081C23.9587 16.9081 23.1865 18.1704 23.1865 19.9179V29.4608C23.1865 31.2083 24.0536 32.4706 25.3741 32.4706C25.5107 32.4723 25.6463 32.4462 25.7729 32.3941C25.8995 32.3419 26.0145 32.2646 26.1111 32.1667C26.2078 32.0688 26.2842 31.9524 26.3358 31.8242C26.3874 31.696 26.4132 31.5586 26.4117 31.4202V27.5923H26.6902C28.1688 29.4519 30.5066 31.7638 32.7171 31.7638C32.9988 31.7884 33.2825 31.7532 33.5501 31.6606C33.8177 31.5679 34.0633 31.4197 34.2712 31.2254C34.4791 31.0312 34.6448 30.7951 34.7576 30.5324C34.8705 30.2696 34.928 29.986 34.9266 29.6994C34.9266 27.8772 33.0421 27.0867 30.7227 26.1867C28.2953 25.2644 26.1077 24.0128 26.1077 21.4686C26.1409 20.4138 26.5147 19.3991 27.1716 18.5801C27.8286 17.7612 28.7326 17.1832 29.7449 16.9348V16.9143L25.498 16.9081ZM3.67195 20.9879L7.21957 30.7267C7.27473 30.8739 7.30185 31.0304 7.29951 31.1878C7.29536 31.5301 7.1585 31.8569 6.9185 32.0978C6.67849 32.3386 6.35461 32.4741 6.01682 32.4751H1.82522C1.58645 32.4752 1.35 32.4276 1.1294 32.335C0.9088 32.2424 0.708387 32.1066 0.539631 31.9355C0.370874 31.7643 0.237086 31.5611 0.145925 31.3375C0.0547636 31.1139 0.00801858 30.8743 0.00836516 30.6323V18.7455C-0.00115426 18.4298 0.112623 18.1231 0.324987 17.8919C0.537351 17.6607 0.831152 17.5237 1.14258 17.5108C2.16874 17.5099 2.8259 18.6636 3.67195 20.9879ZM66.6294 28.4015L63.0818 18.6609C63.0304 18.5241 63.0033 18.3791 63.0018 18.2327C63.0003 18.0607 63.0323 17.8901 63.096 17.7306C63.1597 17.5711 63.2538 17.4259 63.373 17.3034C63.4921 17.1808 63.634 17.0833 63.7904 17.0164C63.9468 16.9495 64.1147 16.9145 64.2845 16.9134H68.4779C68.9592 16.9137 69.4207 17.1075 69.7611 17.4524C70.1014 17.7972 70.2927 18.2649 70.293 18.7526V30.643C70.3025 30.9588 70.1887 31.2656 69.9764 31.4969C69.7641 31.7283 69.4703 31.8654 69.1588 31.8786C68.1326 31.8786 67.4754 30.7214 66.6294 28.4006V28.4015ZM39.7675 9.19984L42.0034 2.76101L44.3492 9.19984H39.7675ZM57.3386 26.1021L59.5772 19.6633L61.923 26.1021H57.3386ZM61.156 32.4742H58.2313C57.9437 32.4886 57.6562 32.4444 57.3858 32.344C57.1155 32.2436 56.8679 32.0892 56.6576 31.8899C56.4474 31.6905 56.2789 31.4504 56.1621 31.1838C56.0453 30.9171 55.9826 30.6294 55.9778 30.3377C55.9795 30.106 56.019 29.8762 56.0946 29.6576L56.8985 27.343H62.3903L63.2241 29.6228C63.3088 29.8523 63.3522 30.0953 63.3524 30.3403C63.3394 30.9181 63.101 31.4672 62.6893 31.8671C62.2776 32.2671 61.7262 32.4854 61.156 32.4742ZM43.5848 15.5719H40.6566C40.369 15.5864 40.0815 15.5421 39.8112 15.4417C39.5408 15.3414 39.2932 15.1869 39.083 14.9876C38.8727 14.7883 38.7042 14.5482 38.5874 14.2815C38.4706 14.0148 38.4079 13.7271 38.4031 13.4354C38.4048 13.2037 38.4443 12.9739 38.5199 12.7553L39.3238 10.4408H44.8148L45.6486 12.7206C45.7332 12.9501 45.7766 13.1931 45.7768 13.4381C45.7641 14.0165 45.5254 14.5662 45.1131 14.9664C44.7009 15.3666 44.1486 15.5847 43.5778 15.5728L43.5848 15.5719ZM27.5318 12.5612V0.940552H27.0117C25.0183 0.940552 23.3991 3.60582 22.7375 5.77079H22.4617V1.19426C22.4617 0.879897 22.3384 0.57841 22.119 0.356123C21.8997 0.133835 21.6021 0.00895556 21.2919 0.00895556C20.9816 0.00895556 20.6841 0.133835 20.4647 0.356123C20.2453 0.57841 20.1221 0.879897 20.1221 1.19426V4.52272H19.8462C18.5231 2.78683 16.2221 0.721562 14.0987 0.721562C13.8355 0.697328 13.5702 0.727586 13.3189 0.810497C13.0677 0.893409 12.8356 1.02724 12.637 1.20385C12.4384 1.38047 12.2773 1.59617 12.1635 1.83785C12.0497 2.07952 11.9857 2.34213 11.9752 2.60968C11.9752 4.21204 14.1856 4.89305 16.4602 5.85892C20.144 7.48353 20.8592 9.54702 20.8592 11.1067C20.8592 13.4399 19.356 14.898 17.3634 15.5523V15.5728H25.223C26.7596 15.5728 27.5318 14.3105 27.5318 12.5612Z" fill="#1E1E1E"/>
</svg>
