<svg width="66" height="38" viewBox="0 0 66 38" fill="none" xmlns="http://www.w3.org/2000/svg">
<g clip-path="url(#clip0_8919_52560)">
<path d="M35.3048 0.969395C34.8112 1.0608 34.1165 1.26799 33.7326 1.42643C32.916 1.76768 31.2585 2.95597 30.3627 3.85177C29.5888 4.61959 29.2414 5.18022 28.6991 6.52085C27.718 8.93401 26.4688 13.9309 26.4688 15.4605C26.4688 16.0089 26.615 17.2338 26.7734 18.0503C26.8405 18.4038 26.938 19.0315 26.9928 19.4519C27.2061 21.1338 27.5595 22.4257 28.1628 23.6871C28.3517 24.0893 28.5224 24.4306 28.5406 24.4489C28.5589 24.4671 28.7356 24.7231 28.9306 25.0278C29.7899 26.3379 30.9782 27.2459 32.331 27.642C34.4577 28.2575 37.3218 27.7578 39.022 26.4781C39.5583 26.0759 40.2103 25.3446 40.4297 24.9059C40.8014 24.1503 40.7222 23.2971 40.2347 22.8157C39.8629 22.4379 39.4364 22.3038 38.7173 22.3282C38.1506 22.3465 38.1201 22.3587 37.2243 22.767C36.1396 23.2606 35.2377 23.5165 34.7929 23.4495C34.3724 23.3824 34.0677 23.0534 33.6777 22.2551C32.916 20.6829 32.5626 19.0924 32.5626 17.2582C32.5626 16.4416 32.5687 16.405 32.7027 16.3197C32.788 16.2649 33.7448 16.1369 35.3657 15.9541C36.7551 15.8017 38.0653 15.6311 38.2725 15.5763C38.8818 15.4178 39.3693 14.9181 39.479 14.327C39.5765 13.8151 39.089 13.2423 38.1932 12.8036C37.3645 12.4014 37.072 12.3648 34.9818 12.4075C33.9824 12.4319 33.1232 12.4684 33.0683 12.4867C32.983 12.5233 32.9769 12.4806 33.0135 12.1698C33.0988 11.4508 33.5985 9.09854 33.8362 8.31853C34.3541 6.61836 34.7076 6.04554 35.4571 5.67381C35.9081 5.45444 36.7856 5.22897 37.5595 5.13756C38.5467 5.01568 38.76 4.96084 38.9854 4.74146C39.2536 4.49162 39.3145 4.19302 39.1804 3.80301C39.1195 3.63239 39.0708 3.29723 39.0647 2.96816C39.0586 2.57207 39.022 2.35269 38.9367 2.18816C38.7478 1.79815 38.3273 1.42643 37.8154 1.18268L37.3462 0.957207L36.4017 0.945019C35.8837 0.938925 35.3901 0.951113 35.3048 0.969395Z" fill="#1E1E1E"/>
<path d="M8.50548 1.32208C7.88391 1.4988 7.51828 1.7913 7.39641 2.23005C7.2989 2.5774 7.31719 2.69928 8.43845 9.85341C8.73704 11.7608 9.12095 14.2471 9.29158 15.3683C10.1935 21.4499 10.8272 23.8022 12.0704 25.6973C12.7711 26.7637 13.4476 27.3366 14.3738 27.6473C16.6102 28.403 19.06 26.9283 20.6078 23.8997C21.0405 23.0587 21.0892 22.9368 22.2836 19.634C24.0813 14.6797 24.4652 13.3513 25.5255 8.42137C25.7814 7.23308 26.0983 5.77665 26.2385 5.19165C26.6468 3.43663 26.5797 2.85162 25.8972 2.16912C25.4828 1.75474 25.0624 1.55974 24.453 1.4927C23.74 1.41958 22.893 1.71208 22.3994 2.20568C21.9545 2.65053 21.8692 2.91866 21.5645 4.73461C20.3823 11.7486 20.1447 12.7541 18.9503 15.7888C18.091 17.9643 16.4457 21.7668 16.3604 21.7668C16.3421 21.7668 16.2324 21.3342 16.1227 20.804C16.007 20.2799 15.7693 19.2013 15.5865 18.4152C15.4037 17.6291 15.0746 16.1179 14.8552 15.0636C13.868 10.2678 13.4902 8.65903 13.0271 7.26964C12.7651 6.50791 11.8327 4.12523 11.4549 3.27819C11.1319 2.55303 10.3885 1.6938 9.83393 1.41348C9.49268 1.23676 8.93814 1.2002 8.50548 1.32208Z" fill="#1E1E1E"/>
<path d="M49.1631 1.719C48.0419 2.0115 47.2984 2.68182 47.0425 3.63245C46.9145 4.09558 46.8962 4.11386 45.6653 5.11325C43.8189 6.60014 42.3137 9.03157 41.4788 11.8652C41.0462 13.3399 40.711 15.6495 40.7537 16.9048C40.778 17.6178 40.9913 19.3118 41.1985 20.427C41.5459 22.3222 42.5818 24.1016 44.1296 25.4605C45.6409 26.7828 46.9572 27.3252 48.6573 27.3252C50.2905 27.3252 51.6067 26.8194 53.0266 25.6494C55.5433 23.5653 56.9388 21.1522 57.9504 17.1363C58.7913 13.7665 59.0168 10.1285 58.5171 7.8189C57.7615 4.29058 55.3666 2.09072 51.8261 1.65806C50.9791 1.55446 49.6689 1.58493 49.1631 1.719ZM52.5147 5.03403C53.0754 5.26559 53.965 6.2467 54.3916 7.09983C54.7085 7.7214 54.8365 8.23328 54.9644 9.3972C55.1594 11.1339 54.9705 13.2302 54.4099 15.4605C53.9102 17.4288 52.8682 19.8298 51.9967 21.0059C51.1497 22.1394 49.48 23.4678 48.895 23.4739C48.6208 23.4739 48.2491 23.2362 47.7189 22.7061C46.6829 21.6823 46.1772 20.5793 45.8115 18.5379C45.6653 17.7396 45.647 17.502 45.647 16.0699C45.6409 14.2966 45.714 13.6385 46.0675 12.2308C46.5367 10.3539 47.3106 8.81829 48.4928 7.41062C48.962 6.84999 49.2606 6.58795 50.4124 5.71654C51.3386 5.00965 51.9724 4.80247 52.5147 5.03403Z" fill="#1E1E1E"/>
<path d="M20.1649 31.2129C19.7322 31.2738 19.4092 31.4261 19.135 31.6882C18.8181 31.9929 18.6719 32.3219 18.6719 32.7546C18.6719 33.5224 19.0436 33.8637 20.4817 34.4365C21.3532 34.7838 21.7188 35.247 21.5177 35.7345C21.2922 36.2768 20.6097 36.3499 19.9455 35.9112C19.7992 35.8076 19.4763 35.5334 19.2325 35.3018C18.9948 35.0642 18.7755 34.8692 18.7633 34.8692C18.745 34.8692 18.7389 35.1617 18.745 35.5212L18.7633 36.1732L19.3117 36.356C19.7992 36.5206 19.9455 36.5389 20.6219 36.5389C21.3349 36.5449 21.408 36.5328 21.731 36.3743C22.7182 35.8929 22.9375 34.8143 22.2185 34.0099C21.9016 33.6565 21.6457 33.498 20.8961 33.1873C19.9577 32.7973 19.7078 32.5901 19.7078 32.1879C19.7139 31.6272 20.366 31.4018 21.0302 31.7308C21.2008 31.8162 21.5664 32.0904 21.8346 32.3402C22.1088 32.5901 22.3586 32.7973 22.3891 32.7973C22.4257 32.7973 22.45 32.5535 22.45 32.1879V31.5846L21.9564 31.4261C21.4994 31.286 20.7803 31.1458 20.561 31.158C20.5122 31.1641 20.3355 31.1885 20.1649 31.2129Z" fill="#1E1E1E"/>
<path d="M44.8396 31.213C44.3887 31.28 44.023 31.4629 43.7427 31.7736C43.4258 32.1149 43.3344 32.3952 43.3649 32.8949C43.3832 33.2118 43.4197 33.3215 43.5721 33.5104C43.8097 33.809 44.2424 34.0649 45.0285 34.3818C46.0218 34.784 46.3752 35.1801 46.1985 35.7041C46.0096 36.2648 45.3027 36.3562 44.6263 35.9113C44.4801 35.8077 44.1571 35.5335 43.9072 35.302C43.6635 35.0643 43.4502 34.8693 43.4319 34.8693C43.4197 34.8693 43.4197 35.1618 43.4258 35.5213L43.4441 36.1734L43.9926 36.3562C44.4801 36.5207 44.6263 36.539 45.3027 36.539C45.9548 36.5451 46.1071 36.5268 46.3448 36.4171C46.7652 36.2221 47.1065 35.887 47.2162 35.5579C47.4173 34.979 47.3076 34.4671 46.8993 34.0101C46.5824 33.6566 46.3265 33.4982 45.577 33.1874C44.669 32.8096 44.3765 32.5719 44.3765 32.2124C44.3765 31.6335 45.0407 31.4019 45.7171 31.7371C45.8938 31.8224 46.2534 32.0966 46.5154 32.3465C46.7774 32.5963 47.0273 32.7974 47.0638 32.7974C47.1065 32.7974 47.1309 32.5963 47.1309 32.188V31.5847L46.6373 31.4263C46.1802 31.2861 45.4612 31.146 45.2418 31.1582C45.193 31.1643 45.0102 31.1886 44.8396 31.213Z" fill="#1E1E1E"/>
<path d="M22.875 32.0479V32.8279L23.332 32.3343C23.8074 31.8163 24.0755 31.6396 24.3924 31.6396H24.5813V33.5713C24.5813 35.046 24.5569 35.6128 24.4899 35.9357C24.4411 36.1673 24.3985 36.3989 24.3985 36.4354C24.3985 36.4964 24.5935 36.5146 25.1602 36.5146C25.5807 36.5146 25.9219 36.4964 25.9219 36.4659C25.9158 36.4415 25.8792 36.2587 25.8305 36.0576C25.7635 35.7773 25.7391 35.2228 25.7391 33.6627V31.6396H25.9402C26.2327 31.6396 26.6532 31.9321 27.0249 32.3952C27.2016 32.6146 27.3661 32.7974 27.3966 32.7974C27.421 32.7974 27.4454 32.4562 27.4454 32.0357V31.274H25.1602H22.875V32.0479Z" fill="#1E1E1E"/>
<path d="M28.5775 31.3776C28.5958 31.4385 28.6324 31.6091 28.6506 31.7615C28.675 31.9991 28.5958 32.2734 28.0413 33.8029C27.6939 34.7779 27.31 35.7834 27.1881 36.0454L26.9688 36.5146H27.5233C28.023 36.5146 28.0656 36.5025 28.0291 36.4111C27.9255 36.1429 27.9194 35.3751 28.023 35.0643L28.1327 34.7474H29.0346H29.9364L30.101 35.2045C30.2472 35.6006 30.2655 35.7225 30.235 36.0881L30.1985 36.5146H31.0821C31.5635 36.5146 31.9596 36.5025 31.9596 36.4903C31.9596 36.4781 31.8865 36.3379 31.795 36.1734C31.6975 36.0089 31.2405 34.8449 30.7713 33.5896L29.9182 31.3044L29.2235 31.2862C28.5836 31.274 28.5349 31.2801 28.5775 31.3776ZM29.4002 33.3032C29.6074 33.8699 29.7658 34.3392 29.7475 34.3574C29.7353 34.3757 29.3941 34.3757 28.9919 34.3696L28.2606 34.3513L28.6263 33.2971C28.8274 32.7182 28.998 32.2551 29.0041 32.2612C29.0102 32.2734 29.193 32.7426 29.4002 33.3032Z" fill="#1E1E1E"/>
<path d="M31.2621 31.3471C31.2865 31.3898 31.384 31.536 31.4693 31.6701C31.5607 31.8041 31.9385 32.4927 32.3163 33.1996L32.9928 34.4854V35.1192C32.9928 35.4848 32.9501 35.8931 32.9013 36.0881C32.8526 36.2709 32.8099 36.4415 32.8099 36.4659C32.8099 36.4964 33.1695 36.5146 33.6021 36.5146C34.0409 36.5146 34.3943 36.5086 34.3943 36.4964C34.3943 36.4903 34.3517 36.3318 34.3029 36.149C34.2481 35.9479 34.2115 35.5396 34.2115 35.1253V34.4306L34.7661 33.3581C35.3511 32.2185 35.8568 31.3349 35.9178 31.3349C36.0092 31.3349 36.5515 32.6024 37.2523 34.4488L38.0202 36.4842L38.5138 36.5025C39.0073 36.5207 39.0073 36.5207 39.0744 36.3501C39.117 36.2587 39.4461 35.3324 39.8056 34.2904C40.1713 33.2484 40.5856 32.1576 40.7258 31.859C40.8599 31.5604 40.9756 31.3105 40.9756 31.2983C40.9756 31.2862 40.738 31.274 40.4516 31.274C39.9336 31.274 39.9275 31.274 39.9641 31.408C39.9885 31.4873 40.025 31.7249 40.0433 31.9443C40.0738 32.3221 40.0494 32.4074 39.5436 33.8638C39.2511 34.6987 38.9952 35.4239 38.9708 35.4665C38.9464 35.5092 38.66 34.8267 38.3005 33.8638L37.6667 32.1819L37.6972 31.731L37.7276 31.274H36.2895H34.8514V31.8041L34.8453 32.3404L34.4126 33.224L33.98 34.1076L33.5046 33.1387C33.0354 32.1941 33.0232 32.1576 33.0232 31.7249V31.274H32.1213C31.4145 31.274 31.2256 31.2923 31.2621 31.3471Z" fill="#1E1E1E"/>
<path d="M41.2812 31.2862C41.2812 31.2983 41.3239 31.4568 41.3727 31.6396C41.4458 31.9016 41.4641 32.3891 41.4641 33.8638C41.4641 35.5335 41.4336 35.9845 41.3056 36.405C41.2752 36.5086 41.3422 36.5146 42.0674 36.5146C42.5061 36.5146 42.8656 36.5086 42.8656 36.4964C42.8656 36.4903 42.823 36.3318 42.7742 36.149C42.6524 35.6859 42.6463 32.1454 42.7681 31.6213L42.8474 31.274H42.0674C41.6347 31.274 41.2812 31.2801 41.2812 31.2862Z" fill="#1E1E1E"/>
<path d="M47.5547 32.0479V32.8279L48.0117 32.3343C48.487 31.8163 48.7552 31.6396 49.072 31.6396H49.261V33.5104C49.261 34.5463 49.2305 35.5518 49.1939 35.7529C49.1635 35.954 49.1147 36.21 49.0964 36.3136L49.0599 36.5146H49.8399H50.6138L50.5711 36.344C50.4432 35.8748 50.4249 35.5335 50.4188 33.6627V31.6396H50.6199C50.9124 31.6396 51.3146 31.9199 51.6924 32.3891C51.8752 32.6146 52.0458 32.7974 52.0763 32.7974C52.1007 32.7974 52.125 32.4562 52.125 32.0357V31.274H49.8399H47.5547V32.0479Z" fill="#1E1E1E"/>
<path d="M53.2616 31.469C53.286 31.5787 53.3103 31.7798 53.3042 31.9138C53.2981 32.1637 52.2134 35.2532 51.8417 36.0698L51.6406 36.5146H52.1891H52.7314L52.6888 36.344C52.6156 36.0881 52.6339 35.1009 52.7192 34.912L52.7924 34.7474H53.6942H54.6022L54.7485 35.1253C54.8643 35.4239 54.8947 35.6189 54.8886 36.015L54.8825 36.5146H55.76H56.6315L56.4121 36.0698C56.2902 35.8321 55.8271 34.656 55.3822 33.4677L54.5778 31.3044L53.8953 31.2862L53.2067 31.2679L53.2616 31.469ZM54.066 33.3337C54.2732 33.876 54.4377 34.3392 54.4377 34.3513C54.4377 34.3696 54.0964 34.3818 53.676 34.3818C53.2555 34.3818 52.9142 34.3696 52.9142 34.3574C52.9142 34.3331 53.4627 32.7913 53.5967 32.4379C53.6211 32.3587 53.6577 32.3038 53.676 32.316C53.6881 32.3282 53.8649 32.7852 54.066 33.3337Z" fill="#1E1E1E"/>
<path d="M10.75 34.3204V36.3923H10.9938H11.2375V36.1486V35.8987L11.4264 36.1181C11.6763 36.3984 12.0114 36.4898 12.4197 36.3984C12.828 36.3009 13.0839 36.0937 13.285 35.6855C13.6263 34.9908 13.4496 33.9061 12.9316 33.51C12.4502 33.1443 11.7677 33.1565 11.4142 33.5465L11.2375 33.7354V32.992V32.2485H10.9938H10.75V34.3204ZM12.4928 33.8268C12.7731 33.9975 12.9133 34.3326 12.9072 34.8384C12.9072 35.1553 12.8767 35.3259 12.7792 35.5148C12.4685 36.0998 11.7128 36.1059 11.4142 35.527C11.2314 35.1858 11.2131 34.4545 11.3777 34.1498C11.597 33.7415 12.115 33.5953 12.4928 33.8268Z" fill="#1E1E1E"/>
<path d="M13.7969 33.3577C13.7969 33.4003 14.0406 34.095 14.3392 34.8994C14.8633 36.3193 14.8755 36.368 14.7902 36.5752C14.6683 36.8799 14.5403 36.9957 14.2966 37.014C14.1077 37.0323 14.065 37.0566 14.0163 37.2334C13.9858 37.343 13.9797 37.4466 13.998 37.4649C14.0163 37.4893 14.1686 37.5076 14.3331 37.5076C14.6683 37.5137 14.8877 37.404 15.0583 37.148C15.168 36.9774 16.4782 33.4918 16.4782 33.3577C16.4782 33.3089 16.3867 33.2846 16.2222 33.2846H15.9602L15.5641 34.4424C15.3447 35.0822 15.1558 35.6002 15.1375 35.6002C15.1192 35.6002 14.9303 35.0761 14.7109 34.4424L14.3148 33.2846H14.0589C13.8883 33.2846 13.7969 33.3089 13.7969 33.3577Z" fill="#1E1E1E"/>
</g>
<defs>
<clipPath id="clip0_8919_52560">
<rect width="65.2647" height="36.6238" fill="white" transform="translate(0.507812 0.426758)"/>
</clipPath>
</defs>
</svg>
