<svg xmlns="http://www.w3.org/2000/svg" viewBox="0 0 80 80"><defs><style>.cls-1{fill:none;}.cls-2{fill:#e9a0a7;}.cls-3{fill:#fdd5a9;}.cls-4{fill:#1e1e1e;}</style></defs><g id="Layer_2" data-name="Layer 2"><g id="Layer_1-2" data-name="Layer 1"><rect class="cls-1" width="80" height="80"/><path class="cls-2" d="M61.91,32.66a1.41,1.41,0,0,0-1.41,1.41V54.64h4.64c4.51,0,6.77-3.65,6.77-8.7V32.66Z"/><path class="cls-3" d="M67.54,9.64c-4,0-6.53,7-8.51,12.61L52,42.32c-.92,2.62-2.17,6.36-2.17,8.26,0,2.29,1.37,4.06,4.62,4.06H60.5V34.07a1.41,1.41,0,0,1,1.41-1.41h10v-15C71.91,12.93,70.94,9.64,67.54,9.64Z"/><path class="cls-4" d="M49.93,14.23a.7.7,0,0,1-.66-.46c-.7-1.91-4.06-1.44-4.09-1.44A.7.7,0,1,1,45,11c.19,0,4.53-.64,5.61,2.34a.71.71,0,0,1-.65.94Z"/><path class="cls-4" d="M49.93,14.23a.7.7,0,0,1-.66-.46c-1.09-3,2.62-5.31,2.78-5.41a.7.7,0,0,1,1,.23.69.69,0,0,1-.22,1s-2.9,1.83-2.21,3.74a.71.71,0,0,1-.65.94Z"/><path class="cls-4" d="M8.66,72a.7.7,0,0,1-.7-.66c0-.19-.8-18.82,14.15-20.74,10.64-1.37,16.48,3.22,23.24,8.55,5.54,4.37,11.83,9.31,22,11.43a.68.68,0,0,1,.54.82.71.71,0,0,1-.83.55c-10.5-2.18-16.92-7.24-22.59-11.7C38,55.12,32.34,50.69,22.29,52,8.63,53.74,9.32,70.55,9.36,71.27a.7.7,0,0,1-.67.73Z"/><path class="cls-4" d="M70.88,72h-.12a.69.69,0,0,1-.57-.8c0-.09,1.3-8.14-2.27-12.54a8,8,0,0,0-6.15-2.85,66.78,66.78,0,0,0-9,.92c-6.72.94-10.9,1.44-12.26.53a.7.7,0,0,1-.19-1,.71.71,0,0,1,1-.2c1,.69,7-.14,11.28-.75a63.62,63.62,0,0,1,9.25-.92A9.3,9.3,0,0,1,69,57.73c4,4.9,2.62,13.29,2.56,13.65A.71.71,0,0,1,70.88,72Z"/><path class="cls-4" d="M70.75,72H8.7a.7.7,0,0,1,0-1.4H70.75a.7.7,0,0,1,0,1.4Z"/><path class="cls-4" d="M26.18,51.17a3.86,3.86,0,0,1-2.62-1,3.81,3.81,0,0,1-1.25-2.69,3.88,3.88,0,0,1,3.71-4,3.9,3.9,0,0,1,2.78,1,3.85,3.85,0,0,1,1.25,2.69h0a3.86,3.86,0,0,1-3.71,4Zm0-6.35h-.1a2.47,2.47,0,0,0-1.72.8,2.41,2.41,0,0,0-.65,1.77,2.46,2.46,0,0,0,2.57,2.37,2.46,2.46,0,0,0,2.37-2.57h0a2.46,2.46,0,0,0-2.47-2.37Z"/><path class="cls-4" d="M52.2,56.5a.69.69,0,0,1-.65-.45l-.43-1.14L45.63,40a1.27,1.27,0,0,0-1.22-.85h0a1.27,1.27,0,0,0-1.22.85L38,54.12a.7.7,0,1,1-1.31-.48l5.19-14.17a2.66,2.66,0,0,1,2.53-1.77h0A2.68,2.68,0,0,1,47,39.47l5.9,16.08a.69.69,0,0,1-.4.9A.56.56,0,0,1,52.2,56.5Z"/><path class="cls-4" d="M68.43,58.9a.72.72,0,0,1-.66-.46L57.08,29.25a1.27,1.27,0,0,0-1.22-.85h0a1.27,1.27,0,0,0-1.22.85L49,44.64a.7.7,0,0,1-1.32-.48l5.64-15.39A2.68,2.68,0,0,1,55.86,27h0a2.66,2.66,0,0,1,2.53,1.77L69.09,58a.71.71,0,0,1-.42.9A.67.67,0,0,1,68.43,58.9Z"/><path class="cls-4" d="M15.86,26.22a.82.82,0,0,1-.3-.07.69.69,0,0,1-.33-.93c.09-.2,2.29-4.82,5.75-4.82a8.57,8.57,0,0,1,2.7.6,7,7,0,0,0,2.72.54A6.42,6.42,0,0,0,29,20a10.21,10.21,0,0,1-2.52,0c-1.39-.19-2.88-1.59-4.45-3.09a12,12,0,0,0-3-2.37,10.61,10.61,0,0,0-3.25-.11A.7.7,0,0,1,15,13.8a.69.69,0,0,1,.62-.76,11.66,11.66,0,0,1,3.86.18A12.16,12.16,0,0,1,23,15.9c1.27,1.21,2.72,2.59,3.66,2.71a7.88,7.88,0,0,0,3.48-.25l.44-.12a.82.82,0,0,1,.81.24.79.79,0,0,1,.11.83c-.33.84-3.15,3.43-5,3.62a8,8,0,0,1-3.3-.6A7.41,7.41,0,0,0,21,21.8c-2.57,0-4.47,4-4.48,4A.71.71,0,0,1,15.86,26.22Z"/><path class="cls-4" d="M15.72,54.29a.71.71,0,0,1-.7-.7V13.73a.71.71,0,0,1,1.41,0V53.59A.71.71,0,0,1,15.72,54.29Z"/></g></g></svg>