<svg xmlns="http://www.w3.org/2000/svg" width="54.011" height="60" viewBox="0 0 54.011 60">
  <g id="Double" transform="translate(-71 -2324)">
    <path id="Icon_feather-hexagon" data-name="Icon feather-hexagon" d="M58.511,45.005V21a6,6,0,0,0-3-5.191l-21-12a6,6,0,0,0-6,0l-21,12A6,6,0,0,0,4.5,21v24a6,6,0,0,0,3,5.191l21,12a6,6,0,0,0,6,0l21-12a6,6,0,0,0,3-5.191Z" transform="translate(66.5 2320.997)" fill="#e99fa7"/>
    <path id="Icon_awesome-piggy-bank" data-name="Icon awesome-piggy-bank" d="M32.614,13.045H30.9a9.347,9.347,0,0,0-2.178-3.058l1.1-4.4H27.955a5.556,5.556,0,0,0-4.251,2,9.236,9.236,0,0,0-1.339-.134H14.909a9.327,9.327,0,0,0-9.132,7.455H3.262a1.4,1.4,0,0,1-1.369-1.677A1.435,1.435,0,0,1,3.32,12.114h.058a.35.35,0,0,0,.349-.349V10.6a.35.35,0,0,0-.349-.349A3.336,3.336,0,0,0,.029,13.08a3.264,3.264,0,0,0,3.232,3.692h2.33a9.281,9.281,0,0,0,3.727,7.414v4.7a.935.935,0,0,0,.932.932h3.727a.935.935,0,0,0,.932-.932v-2.8h7.455v2.8a.935.935,0,0,0,.932.932h3.727a.935.935,0,0,0,.932-.932v-4.7a9.319,9.319,0,0,0,1.823-1.823h2.836a.935.935,0,0,0,.932-.932V13.977A.935.935,0,0,0,32.614,13.045Zm-7.455,3.727a.932.932,0,1,1,.932-.932A.935.935,0,0,1,25.159,16.773ZM14.909,5.591h7.455c.314,0,.623.023.926.047,0-.017.006-.029.006-.047a5.591,5.591,0,1,0-11.182,0c0,.122.029.239.035.361A11.071,11.071,0,0,1,14.909,5.591Z" transform="translate(79.891 2337.97)" fill="none" stroke="#fff" stroke-width="2"/>
  </g>
</svg>
